<svg xmlns="http://www.w3.org/2000/svg" viewBox="0 0 1441 203" width="256" height="36">
	<g fill="#fff">
		<path d="m118.87 89.84l-0.01 18.01l18.01 0.01l-0.01 18.01l-18.01-0.01l-0.01 18.01l-18.01-0.01l0.01-18.01l-18.01-0.01l0.01-18.01l18.01 0.01l0.01-18.01l18.01 0.01z" />
		<path fill-rule="evenodd" d="m218.46 158.21c1.18 2.15 1.13 4.76-0.14 6.86l-20.55 34.18c-1.25 2.07-3.49 3.34-5.91 3.34l-164.06-0.07c-2.42 0-4.66-1.27-5.91-3.34l-20.52-34.2c-1.26-2.1-1.31-4.71-0.13-6.86l84.7-154.25c1.21-2.2 3.53-3.57 6.04-3.57l35.85 0.01c2.51 0 4.83 1.37 6.04 3.58l84.58 154.31zm-14.17 22.21l-94.37-177.12l-94.52 177.05l188.89 0.07z" />
	</g>
	<g fill="#fff">
		<path d="m414.9 40.33l-29.88 116.13c-0.09 0.34-0.4 0.58-0.75 0.58h-17.2c-0.35 0-0.66-0.24-0.75-0.58l-22.08-83.57l-22.46 83.57c-0.09 0.34-0.4 0.58-0.75 0.58h-17.01c-0.35 0-0.67-0.24-0.75-0.58l-29.88-116.13c-0.13-0.49 0.24-0.97 0.75-0.97h17.94c0.36 0 0.67 0.24 0.76 0.59l21.13 86.05l22.28-86.05c0.09-0.34 0.4-0.58 0.75-0.58h14.89c0.35 0 0.66 0.24 0.75 0.58l22.08 86.05l21.13-86.05c0.09-0.35 0.4-0.59 0.75-0.59h17.55c0.51 0 0.88 0.48 0.75 0.97z" />
		<path d="m508.26 40.14v16.08c0 0.43-0.35 0.78-0.78 0.78h-56.53v31.05h51.15c0.44 0 0.79 0.35 0.79 0.79v15.85c0 0.44-0.35 0.79-0.79 0.79h-51.15v33.74h56.53c0.43 0 0.78 0.35 0.78 0.78v16.27c0 0.43-0.35 0.78-0.78 0.78h-54.29c-1.45 0-2.84-0.54-3.91-1.51l-15.97-14.45c-1.22-1.11-1.92-2.68-1.92-4.33v-96.63c0-0.43 0.35-0.78 0.78-0.78h75.31c0.43 0 0.78 0.35 0.78 0.78z" />
		<path d="m605.82 125.61c0 21.47-18.21 33.35-42.17 33.35c-13.89 0-25.99-3.59-34.3-8.4c-1.91-1.1-3.08-3.14-3.08-5.35v-14.39c0-1.28 1.44-1.97 2.47-1.22c10.21 7.46 22.15 11.71 34.91 11.71c13.41 0 22.81-4.79 22.81-15.34c0-9.2-5.94-12.84-16.48-16.87l-17.06-6.13c-15.72-5.75-27.6-14.19-27.6-33.54c0-20.7 18.02-32.01 39.68-32.01c11.73 0 22.55 2.71 31.4 7.6c2 1.11 3.29 3.17 3.29 5.45v13.98c0 1.27-1.43 1.97-2.46 1.24c-9.12-6.48-19.2-10.84-31.85-10.84c-11.88 0-20.7 4.6-20.7 14.19c0 8.63 5.56 12.08 15.34 15.53l18.97 6.9c18.4 6.71 26.83 17.06 26.83 34.12z" />
		<path d="m1343.27 125.61c0 21.47-18.21 33.35-42.17 33.35c-13.89 0-25.99-3.59-34.3-8.4c-1.91-1.1-3.08-3.14-3.08-5.35v-14.39c0-1.28 1.44-1.97 2.47-1.22c10.21 7.46 22.15 11.71 34.91 11.71c13.42 0 22.81-4.79 22.81-15.34c0-9.2-5.94-12.84-16.48-16.87l-17.06-6.13c-15.72-5.75-27.6-14.19-27.6-33.54c0-20.7 18.02-32.01 39.68-32.01c11.73 0 22.55 2.71 31.4 7.6c2 1.11 3.29 3.17 3.29 5.46v13.98c0 1.27-1.43 1.97-2.46 1.24c-9.12-6.48-19.2-10.84-31.85-10.84c-11.88 0-20.7 4.6-20.7 14.19c0 8.63 5.56 12.08 15.34 15.53l18.97 6.9c18.4 6.71 26.84 17.06 26.84 34.12z" />
		<path d="m713.94 40.14v16.08c0 0.43-0.35 0.78-0.78 0.78h-38.32v99.27c0 0.43-0.35 0.78-0.78 0.78h-18.38c-0.43 0-0.78-0.35-0.78-0.78v-99.27h-38.32c-0.43 0-0.78-0.35-0.78-0.78v-16.08c0-0.43 0.35-0.78 0.78-0.78h96.58c0.43 0 0.78 0.35 0.78 0.78z" />
		<path fill-rule="evenodd" d="m923.32 155.21c0.54 0.77-0.01 1.84-0.95 1.84h-19.96c-0.26 0-0.5-0.13-0.64-0.34l-32.54-47.39h-14.18v46.95c0 0.43-0.35 0.78-0.78 0.78h-18.38c-0.43 0-0.78-0.35-0.78-0.78v-116.14c0-0.43 0.35-0.78 0.78-0.78h44.65c24.34 0 40.06 12.27 40.06 35.27c0 19.74-11.5 31.05-30.09 33.93l32.83 46.65zm-43.18-62.56c13.22 0 20.7-7.09 20.7-18.02c0-10.93-7.48-18.02-20.7-18.02h-25.11v36.03h25.11z" />
		<path d="m1040.01 40.14v116.14c0 0.43-0.35 0.78-0.78 0.78h-14.15c-0.25 0-0.49-0.12-0.64-0.33l-59.96-85.35v84.9c0 0.43-0.35 0.78-0.78 0.78h-17.61c-0.43 0-0.78-0.35-0.78-0.78v-116.14c0-0.43 0.35-0.78 0.78-0.78h17.6c0.25 0 0.49 0.13 0.64 0.33l56.51 81.32v-80.88c0-0.43 0.35-0.78 0.78-0.78h17.61c0.43 0 0.78 0.35 0.78 0.78z" />
		<path fill-rule="evenodd" d="m1197.11 155.82c0.36 0.51-0.01 1.23-0.64 1.23h-20.71c-0.26 0-0.5-0.13-0.64-0.34l-32.54-47.39h-14.18v46.95c0 0.43-0.35 0.78-0.78 0.78h-18.38c-0.43 0-0.78-0.35-0.78-0.78v-116.14c0-0.43 0.35-0.78 0.78-0.78h44.65c24.35 0 40.06 12.27 40.06 35.27c0 19.74-11.5 31.05-30.09 33.93l33.26 47.27zm-43.61-63.18c13.23 0 20.7-7.09 20.7-18.02c0-10.93-7.48-18.02-20.7-18.02h-25.11v36.03h25.11z" />
		<path d="m1238.61 40.14v116.14c0 0.43-0.35 0.78-0.78 0.78h-18.38c-0.43 0-0.78-0.35-0.78-0.78v-116.14c0-0.43 0.35-0.78 0.78-0.78h18.38c0.43 0 0.78 0.35 0.78 0.78z" />
		<path d="m809.6 40.14v16.08c0 0.43-0.35 0.78-0.78 0.78h-56.53v31.05h51.15c0.44 0 0.79 0.35 0.79 0.79v15.85c0 0.44-0.36 0.79-0.79 0.79h-51.15v33.74h56.53c0.43 0 0.78 0.35 0.78 0.78v16.27c0 0.43-0.35 0.78-0.78 0.78h-53.81c-1.75 0-3.44-0.65-4.74-1.83l-15.21-13.76c-1.48-1.34-2.32-3.24-2.32-5.24v-96.08c0-0.43 0.35-0.78 0.78-0.78h75.31c0.43 0 0.78 0.35 0.78 0.78z" />
		<path d="m1383.15 57v31.05h51.15c0.44 0 0.79 0.35 0.79 0.79v15.85c0 0.44-0.35 0.79-0.79 0.79h-51.15v33.74h56.53c0.43 0 0.78 0.35 0.78 0.78v16.27c0 0.43-0.35 0.78-0.78 0.78h-53.81c-1.75 0-3.44-0.65-4.74-1.83l-15.21-13.76c-1.48-1.34-2.33-3.24-2.33-5.24v-96.08c0-0.43 0.35-0.78 0.78-0.78h75.31c0.43 0 0.78 0.35 0.78 0.78v16.08c0 0.43-0.35 0.78-0.78 0.78h-56.53z" />
	</g>
</svg>